<mxfile host="Electron" agent="Mozilla/5.0 (Windows NT 10.0; Win64; x64) AppleWebKit/537.36 (KHTML, like Gecko) draw.io/24.7.17 Chrome/128.0.6613.36 Electron/32.0.1 Safari/537.36" version="24.7.17">
  <diagram name="Page-1" id="-H_mtQnk-PTXWXPvYvuk">
    <mxGraphModel dx="2390" dy="823" grid="1" gridSize="10" guides="1" tooltips="1" connect="1" arrows="1" fold="1" page="1" pageScale="1" pageWidth="1169" pageHeight="827" math="0" shadow="0">
      <root>
        <mxCell id="0" />
        <mxCell id="1" parent="0" />
        <mxCell id="6nxzz3cChRqadrtvslNQ-6" value="" style="rounded=1;whiteSpace=wrap;html=1;fillStyle=auto;fillColor=#f5f5f5;fontColor=#333333;strokeColor=#666666;" parent="1" vertex="1">
          <mxGeometry x="500" y="100" width="520" height="490" as="geometry" />
        </mxCell>
        <mxCell id="6nxzz3cChRqadrtvslNQ-4" value="" style="rounded=1;whiteSpace=wrap;html=1;fillStyle=auto;fillColor=#fff2cc;strokeColor=#d6b656;" parent="1" vertex="1">
          <mxGeometry x="75" y="380" width="330" height="220" as="geometry" />
        </mxCell>
        <mxCell id="bckmDBIah3tdikdVT8KQ-4" value="shard2-3 port&amp;nbsp;27024&amp;nbsp;" style="shape=cylinder3;whiteSpace=wrap;html=1;boundedLbl=1;backgroundOutline=1;size=15;" parent="1" vertex="1">
          <mxGeometry x="730" y="474" width="190" height="60" as="geometry" />
        </mxCell>
        <mxCell id="bckmDBIah3tdikdVT8KQ-3" value="shard2-2 port&amp;nbsp;27023&amp;nbsp;" style="shape=cylinder3;whiteSpace=wrap;html=1;boundedLbl=1;backgroundOutline=1;size=15;" parent="1" vertex="1">
          <mxGeometry x="730" y="444" width="190" height="60" as="geometry" />
        </mxCell>
        <mxCell id="bckmDBIah3tdikdVT8KQ-2" value="shard1-3 port&amp;nbsp;27022&amp;nbsp;" style="shape=cylinder3;whiteSpace=wrap;html=1;boundedLbl=1;backgroundOutline=1;size=15;" parent="1" vertex="1">
          <mxGeometry x="730" y="300" width="190" height="60" as="geometry" />
        </mxCell>
        <mxCell id="bckmDBIah3tdikdVT8KQ-1" value="shard1-2 port&amp;nbsp;27021&amp;nbsp;" style="shape=cylinder3;whiteSpace=wrap;html=1;boundedLbl=1;backgroundOutline=1;size=15;" parent="1" vertex="1">
          <mxGeometry x="730" y="270" width="190" height="60" as="geometry" />
        </mxCell>
        <mxCell id="zA23MoTUsTF4_91t8viU-2" value="shard1-1 port&amp;nbsp;27018&amp;nbsp;" style="shape=cylinder3;whiteSpace=wrap;html=1;boundedLbl=1;backgroundOutline=1;size=15;" parent="1" vertex="1">
          <mxGeometry x="730" y="240" width="190" height="60" as="geometry" />
        </mxCell>
        <mxCell id="zA23MoTUsTF4_91t8viU-3" value="&lt;div&gt;&lt;b&gt;&lt;font style=&quot;font-size: 20px;&quot;&gt;Приложение&lt;/font&gt;&lt;/b&gt;&lt;/div&gt;&lt;div&gt;&lt;b&gt;&lt;font style=&quot;font-size: 12px;&quot;&gt;инстанс 1&lt;/font&gt;&lt;/b&gt;&lt;/div&gt;pymongo-api" style="rounded=1;whiteSpace=wrap;html=1;" parent="1" vertex="1">
          <mxGeometry x="-50" y="290" width="140" height="60" as="geometry" />
        </mxCell>
        <mxCell id="owCK5AHuxcXXN9G-xscD-1" value="Роутер&lt;div&gt;mongos_router&lt;br&gt;&lt;div&gt;port&amp;nbsp;27020&lt;/div&gt;&lt;/div&gt;" style="rounded=1;whiteSpace=wrap;html=1;" parent="1" vertex="1">
          <mxGeometry x="540" y="290" width="110" height="60" as="geometry" />
        </mxCell>
        <mxCell id="owCK5AHuxcXXN9G-xscD-2" value="Сервис конфигурации&lt;div&gt;configSrv&lt;br&gt;&lt;div&gt;port&amp;nbsp;27017&lt;/div&gt;&lt;/div&gt;" style="rounded=1;whiteSpace=wrap;html=1;" parent="1" vertex="1">
          <mxGeometry x="550" y="160" width="90" height="60" as="geometry" />
        </mxCell>
        <mxCell id="owCK5AHuxcXXN9G-xscD-3" style="edgeStyle=orthogonalEdgeStyle;rounded=0;orthogonalLoop=1;jettySize=auto;html=1;exitX=0.5;exitY=0;exitDx=0;exitDy=0;entryX=1;entryY=0.5;entryDx=0;entryDy=0;exitPerimeter=0;" parent="1" source="zA23MoTUsTF4_91t8viU-2" target="owCK5AHuxcXXN9G-xscD-2" edge="1">
          <mxGeometry relative="1" as="geometry">
            <mxPoint x="620" y="240" as="sourcePoint" />
            <mxPoint x="720" y="240" as="targetPoint" />
          </mxGeometry>
        </mxCell>
        <mxCell id="owCK5AHuxcXXN9G-xscD-4" style="edgeStyle=orthogonalEdgeStyle;rounded=0;orthogonalLoop=1;jettySize=auto;html=1;exitX=0.5;exitY=1;exitDx=0;exitDy=0;entryX=0.5;entryY=0;entryDx=0;entryDy=0;" parent="1" source="owCK5AHuxcXXN9G-xscD-2" target="owCK5AHuxcXXN9G-xscD-1" edge="1">
          <mxGeometry relative="1" as="geometry">
            <mxPoint x="750" y="290" as="sourcePoint" />
            <mxPoint x="670" y="200" as="targetPoint" />
          </mxGeometry>
        </mxCell>
        <mxCell id="owCK5AHuxcXXN9G-xscD-5" style="edgeStyle=orthogonalEdgeStyle;rounded=0;orthogonalLoop=1;jettySize=auto;html=1;exitX=1;exitY=0.25;exitDx=0;exitDy=0;entryX=0;entryY=0.5;entryDx=0;entryDy=0;entryPerimeter=0;" parent="1" source="owCK5AHuxcXXN9G-xscD-1" target="zA23MoTUsTF4_91t8viU-2" edge="1">
          <mxGeometry relative="1" as="geometry">
            <mxPoint x="625" y="230" as="sourcePoint" />
            <mxPoint x="730" y="307.5" as="targetPoint" />
          </mxGeometry>
        </mxCell>
        <mxCell id="owCK5AHuxcXXN9G-xscD-7" style="edgeStyle=orthogonalEdgeStyle;rounded=0;orthogonalLoop=1;jettySize=auto;html=1;exitX=1;exitY=0.75;exitDx=0;exitDy=0;entryX=0;entryY=0;entryDx=0;entryDy=37.5;entryPerimeter=0;" parent="1" source="owCK5AHuxcXXN9G-xscD-1" target="owCK5AHuxcXXN9G-xscD-15" edge="1">
          <mxGeometry relative="1" as="geometry">
            <mxPoint x="660" y="315" as="sourcePoint" />
            <mxPoint x="730" y="481.5" as="targetPoint" />
          </mxGeometry>
        </mxCell>
        <mxCell id="owCK5AHuxcXXN9G-xscD-8" style="edgeStyle=orthogonalEdgeStyle;rounded=0;orthogonalLoop=1;jettySize=auto;html=1;exitX=1;exitY=0.5;exitDx=0;exitDy=0;entryX=1;entryY=0.25;entryDx=0;entryDy=0;exitPerimeter=0;" parent="1" source="owCK5AHuxcXXN9G-xscD-15" target="owCK5AHuxcXXN9G-xscD-2" edge="1">
          <mxGeometry relative="1" as="geometry">
            <mxPoint x="920" y="480" as="sourcePoint" />
            <mxPoint x="670" y="200" as="targetPoint" />
            <Array as="points">
              <mxPoint x="960" y="444" />
              <mxPoint x="960" y="175" />
            </Array>
          </mxGeometry>
        </mxCell>
        <mxCell id="owCK5AHuxcXXN9G-xscD-10" value="MongoDB шард 1&lt;div&gt;shard1ReplicaSet&lt;br&gt;&lt;/div&gt;" style="text;html=1;align=center;verticalAlign=middle;whiteSpace=wrap;rounded=0;" parent="1" vertex="1">
          <mxGeometry x="730" y="240" width="190" height="30" as="geometry" />
        </mxCell>
        <mxCell id="owCK5AHuxcXXN9G-xscD-15" value="shard2-1 port&amp;nbsp;27019" style="shape=cylinder3;whiteSpace=wrap;html=1;boundedLbl=1;backgroundOutline=1;size=15;" parent="1" vertex="1">
          <mxGeometry x="730" y="414" width="190" height="60" as="geometry" />
        </mxCell>
        <mxCell id="owCK5AHuxcXXN9G-xscD-16" value="MongoDB ш&lt;span style=&quot;background-color: initial;&quot;&gt;ард 2&lt;/span&gt;&lt;div&gt;shard2ReplicaSet&lt;span style=&quot;background-color: initial;&quot;&gt;&lt;br&gt;&lt;/span&gt;&lt;/div&gt;" style="text;html=1;align=center;verticalAlign=middle;whiteSpace=wrap;rounded=0;" parent="1" vertex="1">
          <mxGeometry x="730" y="414" width="190" height="30" as="geometry" />
        </mxCell>
        <mxCell id="6nxzz3cChRqadrtvslNQ-1" style="edgeStyle=orthogonalEdgeStyle;rounded=0;orthogonalLoop=1;jettySize=auto;html=1;exitX=1;exitY=0.5;exitDx=0;exitDy=0;entryX=0;entryY=0.5;entryDx=0;entryDy=0;" parent="1" source="zA23MoTUsTF4_91t8viU-3" target="owCK5AHuxcXXN9G-xscD-1" edge="1">
          <mxGeometry relative="1" as="geometry">
            <mxPoint x="605" y="230" as="sourcePoint" />
            <mxPoint x="605" y="300" as="targetPoint" />
          </mxGeometry>
        </mxCell>
        <mxCell id="6nxzz3cChRqadrtvslNQ-2" value="redis-master&lt;div&gt;&lt;/div&gt;&lt;div&gt;port 6379&lt;/div&gt;" style="rounded=1;whiteSpace=wrap;html=1;" parent="1" vertex="1">
          <mxGeometry x="265" y="430" width="120" height="44" as="geometry" />
        </mxCell>
        <mxCell id="6nxzz3cChRqadrtvslNQ-3" value="redis-slave1&lt;div&gt;&lt;/div&gt;&lt;div&gt;port 6380&lt;br&gt;&lt;/div&gt;" style="rounded=1;whiteSpace=wrap;html=1;" parent="1" vertex="1">
          <mxGeometry x="265" y="482" width="120" height="44" as="geometry" />
        </mxCell>
        <mxCell id="6nxzz3cChRqadrtvslNQ-5" value="Кэш (Redis)" style="text;html=1;align=center;verticalAlign=middle;whiteSpace=wrap;rounded=0;fontStyle=1;fontSize=20;" parent="1" vertex="1">
          <mxGeometry x="100" y="390" width="125" height="30" as="geometry" />
        </mxCell>
        <mxCell id="6nxzz3cChRqadrtvslNQ-7" value="БД (Mongo)" style="text;html=1;align=center;verticalAlign=middle;whiteSpace=wrap;rounded=0;fontStyle=1;fontSize=20;" parent="1" vertex="1">
          <mxGeometry x="710" y="110" width="130" height="30" as="geometry" />
        </mxCell>
        <mxCell id="6nxzz3cChRqadrtvslNQ-8" style="edgeStyle=orthogonalEdgeStyle;rounded=0;orthogonalLoop=1;jettySize=auto;html=1;exitX=1;exitY=0.5;exitDx=0;exitDy=0;entryX=0.5;entryY=0;entryDx=0;entryDy=0;" parent="1" source="zA23MoTUsTF4_91t8viU-3" target="6nxzz3cChRqadrtvslNQ-2" edge="1">
          <mxGeometry relative="1" as="geometry">
            <mxPoint x="160" y="330" as="sourcePoint" />
            <mxPoint x="550" y="330" as="targetPoint" />
          </mxGeometry>
        </mxCell>
        <mxCell id="6nxzz3cChRqadrtvslNQ-10" value="redis-slave2&lt;div&gt;&lt;/div&gt;&lt;div&gt;port 6381&lt;br&gt;&lt;/div&gt;" style="rounded=1;whiteSpace=wrap;html=1;" parent="1" vertex="1">
          <mxGeometry x="265" y="534" width="120" height="44" as="geometry" />
        </mxCell>
        <mxCell id="6nxzz3cChRqadrtvslNQ-15" value="Обращение в БД" style="text;html=1;align=center;verticalAlign=middle;whiteSpace=wrap;rounded=0;fontStyle=1" parent="1" vertex="1">
          <mxGeometry x="170" y="290" width="140" height="30" as="geometry" />
        </mxCell>
        <mxCell id="6nxzz3cChRqadrtvslNQ-19" value="Данные о кластере" style="text;html=1;align=center;verticalAlign=middle;whiteSpace=wrap;rounded=0;fontStyle=1" parent="1" vertex="1">
          <mxGeometry x="530" y="230" width="60" height="30" as="geometry" />
        </mxCell>
        <mxCell id="6nxzz3cChRqadrtvslNQ-20" value="Данные о шарде 1" style="text;html=1;align=center;verticalAlign=middle;whiteSpace=wrap;rounded=0;fontStyle=1" parent="1" vertex="1">
          <mxGeometry x="725" y="150" width="115" height="30" as="geometry" />
        </mxCell>
        <mxCell id="6nxzz3cChRqadrtvslNQ-21" value="Данные о шарде 2" style="text;html=1;align=center;verticalAlign=middle;whiteSpace=wrap;rounded=0;fontStyle=1" parent="1" vertex="1">
          <mxGeometry x="710" y="190" width="115" height="30" as="geometry" />
        </mxCell>
        <mxCell id="6nxzz3cChRqadrtvslNQ-22" value="Баласировка нагрузки на БД" style="text;html=1;align=center;verticalAlign=middle;whiteSpace=wrap;rounded=0;fontStyle=1" parent="1" vertex="1">
          <mxGeometry x="600" y="360" width="85" height="30" as="geometry" />
        </mxCell>
        <mxCell id="2VOlMwJ-2V_Eu2CbF1iW-1" value="&lt;div&gt;redis-sentinel&lt;/div&gt;&lt;div&gt;port 26379&lt;/div&gt;" style="rounded=1;whiteSpace=wrap;html=1;" parent="1" vertex="1">
          <mxGeometry x="100" y="482" width="120" height="44" as="geometry" />
        </mxCell>
        <mxCell id="2VOlMwJ-2V_Eu2CbF1iW-2" value="" style="endArrow=classic;html=1;rounded=0;entryX=0;entryY=0.5;entryDx=0;entryDy=0;exitX=0.5;exitY=0;exitDx=0;exitDy=0;" parent="1" source="2VOlMwJ-2V_Eu2CbF1iW-1" target="6nxzz3cChRqadrtvslNQ-2" edge="1">
          <mxGeometry width="50" height="50" relative="1" as="geometry">
            <mxPoint x="-10" y="500" as="sourcePoint" />
            <mxPoint x="40" y="450" as="targetPoint" />
            <Array as="points">
              <mxPoint x="160" y="452" />
            </Array>
          </mxGeometry>
        </mxCell>
        <mxCell id="2VOlMwJ-2V_Eu2CbF1iW-3" value="" style="endArrow=classic;html=1;rounded=0;entryX=0;entryY=0.5;entryDx=0;entryDy=0;exitX=0.5;exitY=1;exitDx=0;exitDy=0;" parent="1" source="2VOlMwJ-2V_Eu2CbF1iW-1" target="6nxzz3cChRqadrtvslNQ-10" edge="1">
          <mxGeometry width="50" height="50" relative="1" as="geometry">
            <mxPoint x="157.5" y="571" as="sourcePoint" />
            <mxPoint x="262.5" y="541" as="targetPoint" />
            <Array as="points">
              <mxPoint x="160" y="556" />
            </Array>
          </mxGeometry>
        </mxCell>
        <mxCell id="2VOlMwJ-2V_Eu2CbF1iW-4" value="" style="endArrow=classic;html=1;rounded=0;entryX=0;entryY=0.5;entryDx=0;entryDy=0;exitX=1;exitY=0.5;exitDx=0;exitDy=0;" parent="1" source="2VOlMwJ-2V_Eu2CbF1iW-1" target="6nxzz3cChRqadrtvslNQ-3" edge="1">
          <mxGeometry width="50" height="50" relative="1" as="geometry">
            <mxPoint x="200" y="580" as="sourcePoint" />
            <mxPoint x="250" y="530" as="targetPoint" />
          </mxGeometry>
        </mxCell>
        <mxCell id="2VOlMwJ-2V_Eu2CbF1iW-5" value="мониторинг нод redis" style="text;html=1;align=center;verticalAlign=middle;whiteSpace=wrap;rounded=0;fontStyle=1" parent="1" vertex="1">
          <mxGeometry x="192.5" y="452" width="70" height="30" as="geometry" />
        </mxCell>
        <mxCell id="ilNeSztwmNpxgVw_L8iR-1" value="&lt;div&gt;&lt;b&gt;&lt;font style=&quot;font-size: 20px;&quot;&gt;API Gateway&lt;/font&gt;&lt;/b&gt;&lt;/div&gt;APISIX Gateway&lt;div&gt;consul_kv&lt;/div&gt;" style="rounded=1;whiteSpace=wrap;html=1;" vertex="1" parent="1">
          <mxGeometry x="-340" y="230" width="140" height="60" as="geometry" />
        </mxCell>
        <mxCell id="ilNeSztwmNpxgVw_L8iR-2" value="&lt;div&gt;&lt;b&gt;&lt;font style=&quot;font-size: 20px;&quot;&gt;Приложение&lt;/font&gt;&lt;/b&gt;&lt;/div&gt;&lt;div&gt;&lt;b&gt;&lt;font style=&quot;font-size: 12px;&quot;&gt;инстанс 2&lt;/font&gt;&lt;/b&gt;&lt;/div&gt;pymongo-api" style="rounded=1;whiteSpace=wrap;html=1;" vertex="1" parent="1">
          <mxGeometry x="-50" y="180" width="140" height="60" as="geometry" />
        </mxCell>
        <mxCell id="ilNeSztwmNpxgVw_L8iR-5" value="" style="endArrow=none;html=1;rounded=0;entryX=1;entryY=0.5;entryDx=0;entryDy=0;" edge="1" parent="1" target="ilNeSztwmNpxgVw_L8iR-2">
          <mxGeometry width="50" height="50" relative="1" as="geometry">
            <mxPoint x="150" y="320" as="sourcePoint" />
            <mxPoint x="170" y="200" as="targetPoint" />
            <Array as="points">
              <mxPoint x="150" y="210" />
            </Array>
          </mxGeometry>
        </mxCell>
        <mxCell id="ilNeSztwmNpxgVw_L8iR-9" value="&lt;div style=&quot;font-size: 12px;&quot;&gt;&lt;span style=&quot;font-size: 12px;&quot;&gt;&lt;b style=&quot;font-size: 12px;&quot;&gt;consul&lt;/b&gt;&lt;/span&gt;&lt;/div&gt;" style="rounded=1;whiteSpace=wrap;html=1;fontSize=12;" vertex="1" parent="1">
          <mxGeometry x="-50" y="70" width="140" height="60" as="geometry" />
        </mxCell>
        <mxCell id="ilNeSztwmNpxgVw_L8iR-10" value="" style="endArrow=classic;html=1;rounded=0;entryX=0;entryY=0.5;entryDx=0;entryDy=0;exitX=1;exitY=0.5;exitDx=0;exitDy=0;" edge="1" parent="1" source="ilNeSztwmNpxgVw_L8iR-1" target="ilNeSztwmNpxgVw_L8iR-2">
          <mxGeometry width="50" height="50" relative="1" as="geometry">
            <mxPoint x="-240" y="460" as="sourcePoint" />
            <mxPoint x="-190" y="410" as="targetPoint" />
          </mxGeometry>
        </mxCell>
        <mxCell id="ilNeSztwmNpxgVw_L8iR-11" value="" style="endArrow=classic;html=1;rounded=0;entryX=0;entryY=0.5;entryDx=0;entryDy=0;" edge="1" parent="1" target="zA23MoTUsTF4_91t8viU-3">
          <mxGeometry width="50" height="50" relative="1" as="geometry">
            <mxPoint x="-200" y="260" as="sourcePoint" />
            <mxPoint x="-160" y="410" as="targetPoint" />
          </mxGeometry>
        </mxCell>
        <mxCell id="ilNeSztwmNpxgVw_L8iR-12" value="" style="endArrow=classic;html=1;rounded=0;exitX=1;exitY=0.25;exitDx=0;exitDy=0;" edge="1" parent="1" source="ilNeSztwmNpxgVw_L8iR-2">
          <mxGeometry width="50" height="50" relative="1" as="geometry">
            <mxPoint x="160" y="180" as="sourcePoint" />
            <mxPoint x="90" y="100" as="targetPoint" />
            <Array as="points">
              <mxPoint x="120" y="195" />
              <mxPoint x="120" y="100" />
            </Array>
          </mxGeometry>
        </mxCell>
        <mxCell id="ilNeSztwmNpxgVw_L8iR-13" value="" style="endArrow=classic;html=1;rounded=0;exitX=1;exitY=0.25;exitDx=0;exitDy=0;entryX=1;entryY=0.5;entryDx=0;entryDy=0;" edge="1" parent="1" source="zA23MoTUsTF4_91t8viU-3" target="ilNeSztwmNpxgVw_L8iR-9">
          <mxGeometry width="50" height="50" relative="1" as="geometry">
            <mxPoint x="90" y="320" as="sourcePoint" />
            <mxPoint x="90" y="225" as="targetPoint" />
            <Array as="points">
              <mxPoint x="120" y="305" />
              <mxPoint x="120" y="100" />
            </Array>
          </mxGeometry>
        </mxCell>
        <mxCell id="ilNeSztwmNpxgVw_L8iR-14" value="" style="endArrow=classic;html=1;rounded=0;exitX=0.5;exitY=0;exitDx=0;exitDy=0;entryX=0;entryY=0.5;entryDx=0;entryDy=0;" edge="1" parent="1" source="ilNeSztwmNpxgVw_L8iR-1" target="ilNeSztwmNpxgVw_L8iR-9">
          <mxGeometry width="50" height="50" relative="1" as="geometry">
            <mxPoint x="-190" y="270" as="sourcePoint" />
            <mxPoint x="-160" y="160" as="targetPoint" />
            <Array as="points">
              <mxPoint x="-270" y="100" />
            </Array>
          </mxGeometry>
        </mxCell>
        <mxCell id="ilNeSztwmNpxgVw_L8iR-15" value="Получение списка серверов" style="text;html=1;align=center;verticalAlign=middle;whiteSpace=wrap;rounded=0;fontStyle=1" vertex="1" parent="1">
          <mxGeometry x="-250" y="70" width="140" height="30" as="geometry" />
        </mxCell>
        <mxCell id="ilNeSztwmNpxgVw_L8iR-16" value="Регистрация серверов" style="text;html=1;align=center;verticalAlign=middle;whiteSpace=wrap;rounded=0;fontStyle=1" vertex="1" parent="1">
          <mxGeometry x="122.5" y="110" width="77.5" height="30" as="geometry" />
        </mxCell>
        <mxCell id="ilNeSztwmNpxgVw_L8iR-17" value="Баласировка нагрузки на Приложение" style="text;html=1;align=center;verticalAlign=middle;whiteSpace=wrap;rounded=0;fontStyle=1" vertex="1" parent="1">
          <mxGeometry x="-140" y="245" width="85" height="30" as="geometry" />
        </mxCell>
      </root>
    </mxGraphModel>
  </diagram>
</mxfile>
